<?xml version="1.0" encoding="utf-8"?>
<!-- Generator: Adobe Illustrator 28.0.0, SVG Export Plug-In . SVG Version: 6.00 Build 0)  -->
<svg version="1.1" id="圖層_1" xmlns="http://www.w3.org/2000/svg" xmlns:xlink="http://www.w3.org/1999/xlink" x="0px" y="0px"
	 viewBox="0 0 101.7 25.5" style="enable-background:new 0 0 101.7 25.5;" xml:space="preserve">
<style type="text/css">
	.st0{fill:#94693C;}
</style>
<g>
	<path class="st0" d="M48,0h-0.4c-0.5,0-0.9,0.2-1.3,0.5c-0.3,0.3-0.4,0.6-0.5,1H34.1c-0.1-0.4-0.2-0.7-0.5-1
		C33.2,0.2,32.8,0,32.3,0H32v1.5h-3.4v2.2H32l0,2.8h-3.3v2.2H32l0,6.4c0,0.4,0.3,0.7,0.7,0.7h6.3l0,1.1l-10.3,0v2.2h8.1
		c-2.5,1.6-5.1,2.7-7.8,3.4l-0.3,0.1V25l0.4-0.1c3-0.6,6.3-2.1,9.9-4.5l0,5.1h0.4c0.5,0,0.9-0.2,1.3-0.5c0.3-0.3,0.5-0.8,0.5-1.3
		l0-3.2c3,2,6.3,3.4,9.9,4.2l0.4,0.1v-2.3l-0.3-0.1c-3-0.8-5.7-1.8-7.9-3.2h8.2l0-2.2H41v-1.1h8.7v-2.1H34.1V8.8l3.4,0l0,3.5h8.7
		c0,0,0.1,0,0.1,0c0.3,0,0.6-0.1,0.9-0.3c0,0,0.1,0,0.1-0.1l0.1,0l0,0c0,0,0.1-0.1,0.1-0.1c0.3-0.3,0.5-0.7,0.5-1.2c0,0,0,0,0,0V8.8
		l3.4,0l0-2.2H48l0-2.8l3.4,0V1.5H48L48,0z M37.5,4.5v2.1h-3.4V3.7l11.8,0v2.8h-6.2V4.5H37.5z M45.9,10.1l-6.2,0l0-1.4h6.2V10.1z"/>
	<g>
		<path class="st0" d="M7.6,9.7C8,9.3,8.2,8.9,8.2,8.4l0-7.6l-0.3,0C7.3,0.8,6.9,1,6.6,1.3C6.2,1.7,6,2.1,6,2.6l0,7.6h0.4
			C6.9,10.2,7.3,10,7.6,9.7"/>
		<path class="st0" d="M2.1,10.2h0.4V2.6c0-0.5-0.2-0.9-0.5-1.3C1.6,1,1.1,0.8,0.6,0.8l-0.3,0v7.6c0,0.5,0.2,0.9,0.5,1.3
			C1.2,10,1.6,10.2,2.1,10.2"/>
		<path class="st0" d="M24.6,0.8l-15.3,0C9,0.8,8.7,1.1,8.7,1.5v3.8h2.2V3H16l0,1h-4.4v2.2h4.4v0.9l-5,0c-0.4,0-0.7,0.3-0.7,0.7
			v10.5c0,0.4,0.3,0.7,0.7,0.7h5l0,1.3h-5.7v2.2h5.7v3h0.4c0.5,0,0.9-0.2,1.3-0.5c0.3-0.3,0.5-0.8,0.5-1.3v-1.2h5.7v-2.2H18v-1.3
			h5.1c0.4,0,0.7-0.3,0.7-0.7l0-10.5c0-0.4-0.3-0.7-0.7-0.7l-5.1,0V6.2h4.4V4L18,4V3h5l0,2.3h2.2V1.5C25.3,1.1,25,0.8,24.6,0.8
			 M12.4,9.2l3.5,0l0,2.7h-3.5V9.2z M12.4,16.7v-2.6h3.5l0,2.6L12.4,16.7z M21.6,16.7l-3.5,0l0-2.6h3.5L21.6,16.7z M21.6,11.9H18
			l0-2.7l3.5,0L21.6,11.9z"/>
		<path class="st0" d="M5.3,11.1l0-8.5c0-0.5-0.2-0.9-0.5-1.3C4.4,1,4,0.8,3.5,0.8H3.2v10.3l-1.1,0l-2.1,0v2.1h1.5v3
			C1.5,18.4,1,22,0.2,24L0,24.5h2.5l0.1-0.2c0.6-1.8,1-5.3,1.1-7.8v-3.2h0.9l0,8.8l0,0l0,0c0,0.5,0.2,0.9,0.5,1.2
			c0,0,0.1,0.1,0.1,0.1c0,0,0.1,0.1,0.1,0.1c0,0,0,0,0,0c0.3,0.2,0.6,0.3,1,0.3c0,0,0.1,0,0.3,0h1.8v-2.2H6.8l0-8.4h1.7v-2.1H6.2
			L5.3,11.1z"/>
	</g>
	<g>
		<path class="st0" d="M74.4,15.3l-4.3,2c-0.4,0.2-0.8,0.6-0.9,1c-0.2,0.4-0.1,0.9,0.1,1.4l0.1,0.3l4.3-2c0.4-0.2,0.8-0.6,0.9-1
			c0.2-0.4,0.2-0.9-0.1-1.4L74.4,15.3z"/>
		<path class="st0" d="M63.2,14.4H74c0.4,0,0.7-0.3,0.7-0.7l0-11.5c0-0.4-0.3-0.7-0.7-0.7h-8.4c-0.1-0.4-0.2-0.7-0.5-1
			C64.8,0.2,64.3,0,63.8,0l-0.3,0v1.5h-8.1c-0.4,0-0.7,0.3-0.7,0.7l0,21.4l0,0l0,0c0,0.5,0.2,0.9,0.5,1.2c0,0,0.1,0.1,0.1,0.1
			c0,0,0.1,0.1,0.1,0.1c0,0,0,0,0,0c0.3,0.2,0.6,0.3,1,0.3c0,0,0.1,0,0.3,0h6.5v-2.2H57l0-8.9h3.6c3,6.4,7.5,9.9,14.1,11.1v-2.4
			C70.9,22.2,65.7,20,63.2,14.4z M57,3.7h15.4v3.1H57L57,3.7z M57,9h15.4v3.1H57L57,9z"/>
	</g>
	<g>
		<path class="st0" d="M101.2,13c-0.1,0-0.1,0-0.2,0h0h-9.6h0c-0.1,0-0.1,0-0.2,0c-0.3,0.1-0.5,0.3-0.5,0.6v11.2
			c0,0.4,0.3,0.7,0.7,0.7h10.3c0-0.3,0-11.8,0-11.8C101.7,13.3,101.5,13.1,101.2,13z M99.5,23.3l-3.3,0l-3.3,0l0-8.2h6.6L99.5,23.3z
			"/>
		<path class="st0" d="M88.5,13c-0.1,0-0.1,0-0.2,0h0h-9.6h0c-0.1,0-0.1,0-0.2,0c-0.3,0.1-0.5,0.3-0.5,0.6v11.2
			c0,0.4,0.3,0.7,0.7,0.7H89c0-0.3,0-11.8,0-11.8C89,13.3,88.8,13.1,88.5,13z M86.8,23.3l-3.3,0l-3.3,0l0-8.2h6.6L86.8,23.3z"/>
		<path class="st0" d="M81.2,11.3h17.8c0-0.2,0-10,0-10c0-0.3-0.2-0.6-0.5-0.6c-0.1,0-0.1,0-0.2,0h0H81.2h0c-0.1,0-0.1,0-0.2,0
			c-0.3,0.1-0.5,0.3-0.5,0.6v9.3C80.6,11,80.9,11.3,81.2,11.3z M96.9,2.8l0,6.4l-7,0l-7,0l0-6.4H96.9z"/>
	</g>
</g>
</svg>
